<svg id="图层_1" data-name="图层 1" xmlns="http://www.w3.org/2000/svg" viewBox="0 0 204.63 204.63"><defs><style>.cls-1{fill:#050001;}</style></defs><polyline class="cls-1" points="103.31 74.31 103.46 74.17 103.31 74.03 102.32 75.02"/><polygon class="cls-1" points="102.74 149.53 89.28 136.07 83.23 141.82 102.74 161.34 122.61 141.47 116.7 135.57 102.74 149.53"/><polygon class="cls-1" points="148.82 102.22 135.37 115.67 141.12 121.73 160.63 102.22 140.76 82.35 134.86 88.25 148.82 102.22"/><polygon class="cls-1" points="102.3 56.16 115.76 69.62 121.81 63.87 102.3 44.36 82.43 64.23 88.34 70.13 102.3 56.16"/><rect class="cls-1" x="125.57" y="61.86" width="37" height="9" transform="translate(36.46 176.88) rotate(-90)"/><rect class="cls-1" x="153.31" y="97.31" width="37" height="9"/><rect class="cls-1" x="125.57" y="199.86" width="37" height="9" transform="translate(307.17 26.74) rotate(90)"/><polygon class="cls-1" points="22.63 102.31 53.86 71.08 42.33 59.98 0 102.31 38.08 140.39 49.39 129.08 22.63 102.31"/><polygon class="cls-1" points="55.75 102.77 69.21 89.32 63.46 83.26 43.95 102.77 63.81 122.64 69.72 116.74 55.75 102.77"/><rect class="cls-1" x="55.57" y="131.86" width="37" height="9" transform="translate(106.88 239.17) rotate(180)"/><polygon class="cls-1" points="71.3 150.98 59.98 162.3 102.31 204.63 144.97 161.97 133.66 150.66 102.31 182 71.3 150.98"/><polygon class="cls-1" points="102.31 0 59.91 42.41 71.31 53.63 102.31 22.63 133.66 53.97 144.94 42.62 102.31 0"/><polygon class="cls-1" points="182 102.31 150.89 133.36 162.38 144.51 204.63 102.31 162.3 59.98 150.98 71.3 182 102.31"/></svg>